<svg width="24" height="24" viewBox="0 0 24 24" fill="none" xmlns="http://www.w3.org/2000/svg">
<g id="noun-address-2340040 1">
<g id="Group">
<g id="Group_2">
<g id="Group_3">
<path id="Vector" d="M16.1014 15.9503C15.8287 16.4276 15.5332 16.8822 15.2376 17.3141C17.1471 17.746 18.2836 18.4961 18.2836 19.0644C18.2836 19.9055 15.7605 21.1784 11.9416 21.1784C8.12284 21.1784 5.59969 19.9055 5.59969 19.0644C5.59969 18.4961 6.73624 17.7687 8.64565 17.3141C8.35015 16.8822 8.05464 16.4276 7.78187 15.9503C5.59969 16.5185 4.03125 17.5414 4.03125 19.0644C4.03125 21.4739 8.00918 22.7468 11.9416 22.7468C15.8741 22.7468 19.852 21.4739 19.852 19.0644C19.852 17.5414 18.2836 16.5185 16.1014 15.9503Z" fill="#ECAB4C"/>
<path id="Vector_2" d="M12.6446 18.4279C14.2585 16.0412 18.1228 10.0629 18.1228 7.35792C18.1228 3.92553 15.3496 1.15234 11.9399 1.15234C8.53029 1.15234 5.73438 3.92553 5.73438 7.35792C5.73438 10.0629 9.62138 16.0412 11.2353 18.4279C11.5763 18.9053 12.3036 18.9053 12.6446 18.4279ZM9.05311 7.35792C9.05311 5.76674 10.3488 4.47107 11.9399 4.47107C13.5311 4.47107 14.8268 5.76674 14.8268 7.35792C14.8268 8.94909 13.5311 10.222 11.9399 10.222C10.3488 10.222 9.05311 8.92636 9.05311 7.35792Z" fill="#ECAB4C"/>
</g>
</g>
</g>
</g>
</svg>
