<svg width="24" height="24" viewBox="0 0 24 24" fill="none" xmlns="http://www.w3.org/2000/svg">
<g id="Frame">
<path id="Vector" d="M12.0016 2.40039C8.02515 2.40039 4.8016 5.62394 4.8016 9.60039V13.9034L3.95307 14.7519C3.60987 15.0951 3.50721 15.6112 3.69294 16.0596C3.87868 16.5081 4.31625 16.8004 4.8016 16.8004H19.2016C19.687 16.8004 20.1245 16.5081 20.3102 16.0596C20.496 15.6112 20.3933 15.0951 20.0501 14.7519L19.2016 13.9034V9.60039C19.2016 5.62394 15.978 2.40039 12.0016 2.40039Z" fill="#ECAB4C"/>
<path id="Vector_2" d="M11.9984 21.6C10.0102 21.6 8.39844 19.9883 8.39844 18H15.5984C15.5984 19.9883 13.9867 21.6 11.9984 21.6Z" fill="#ECAB4C"/>
</g>
</svg>
