<svg width="24" height="24" viewBox="0 0 24 24" fill="none" xmlns="http://www.w3.org/2000/svg">
<g id="noun-bulk-buying-4269103">
<path id="Vector" fill-rule="evenodd" clip-rule="evenodd" d="M15.8545 17.0871H12.2104C12.0783 17.0871 11.9516 17.1398 11.858 17.2332C11.7647 17.3265 11.7122 17.4534 11.7122 17.5855V21.2297C11.7122 21.3618 11.7647 21.4886 11.858 21.582C11.9516 21.6754 12.0783 21.728 12.2104 21.7278H15.8545C15.9868 21.728 16.1135 21.6754 16.2069 21.582C16.3005 21.4886 16.3529 21.3618 16.3529 21.2297V17.5855C16.3529 17.4534 16.3005 17.3265 16.2069 17.2332C16.1135 17.1398 15.9868 17.0871 15.8545 17.0871ZM17.1395 17.5855V21.2297C17.1395 21.3618 17.1919 21.4886 17.2853 21.582C17.3788 21.6754 17.5055 21.728 17.6376 21.7278C18.5298 21.7278 20.3899 21.7278 21.2822 21.7278C21.4143 21.728 21.5409 21.6754 21.6343 21.582C21.7279 21.4886 21.7803 21.3618 21.7803 21.2297C21.7803 20.3376 21.7803 18.4775 21.7803 17.5855C21.7803 17.4534 21.7279 17.3265 21.6343 17.2332C21.5409 17.1398 21.4143 17.0871 21.2822 17.0871C20.3899 17.0871 18.5298 17.0871 17.6376 17.0871C17.5055 17.0871 17.3788 17.1398 17.2853 17.2332C17.1919 17.3265 17.1395 17.4534 17.1395 17.5855ZM6.87956 17.0871C7.84379 17.0871 8.62672 17.8701 8.62672 18.8345C8.62672 19.7987 7.84379 20.5817 6.87956 20.5817C5.91512 20.5817 5.1322 19.7987 5.1322 18.8345C5.1322 17.8701 5.91512 17.0871 6.87956 17.0871ZM5.1086 11.018H2.65697C2.30282 11.018 2.01562 11.305 2.01562 11.6593C2.01562 11.6595 2.01562 11.6599 2.01562 11.6603C2.01562 12.0145 2.30282 12.3017 2.65697 12.3017H5.25562L5.74369 16.5692C6.08554 16.3974 6.47136 16.3006 6.87956 16.3006C8.27781 16.3006 9.41327 17.4361 9.41327 18.8345C9.41327 18.985 9.40016 19.1324 9.37495 19.2756H10.9257V17.5855C10.9257 17.2447 11.061 16.9179 11.302 16.6769C11.5428 16.4361 11.8697 16.3006 12.2104 16.3006H13.7399C13.6742 16.1445 13.6393 15.9753 13.6393 15.8024C13.6393 14.9104 13.6393 13.0501 13.6393 12.1581C13.6393 11.8172 13.7746 11.4905 14.0156 11.2495C14.2566 11.0085 14.5834 10.8732 14.9242 10.8732H18.5684C18.9092 10.8732 19.2359 11.0085 19.4769 11.2495C19.7177 11.4905 19.8531 11.8172 19.8531 12.1581C19.8531 13.0501 19.8531 14.9104 19.8531 15.8024C19.8531 15.9753 19.8184 16.1445 19.7526 16.3006H20.7153L21.4056 10.2597C21.4312 10.0358 21.3602 9.81152 21.2102 9.64352C21.0601 9.47532 20.8455 9.37911 20.6203 9.37911H5.80783C5.58255 9.37911 5.36796 9.47532 5.21791 9.64352C5.06786 9.81152 4.99687 10.0358 5.02248 10.2597L5.1086 11.018ZM14.9242 16.3006H18.5684C18.7005 16.3006 18.8273 16.2482 18.9207 16.1548C19.0141 16.0614 19.0665 15.9345 19.0665 15.8024C19.0665 14.9104 19.0665 13.0501 19.0665 12.1581C19.0665 12.0258 19.0141 11.8991 18.9207 11.8057C18.8273 11.7122 18.7005 11.6597 18.5684 11.6597C17.6763 11.6597 15.8162 11.6597 14.9242 11.6597C14.7919 11.6597 14.6652 11.7122 14.5719 11.8057C14.4785 11.8991 14.4258 12.0258 14.4258 12.1581C14.4258 13.0501 14.4258 14.9104 14.4258 15.8024C14.4258 15.9345 14.4785 16.0614 14.5719 16.1548C14.6652 16.2482 14.7919 16.3006 14.9242 16.3006ZM17.0671 8.59256V7.47243C17.0671 7.20318 16.8488 6.98476 16.5794 6.98476C15.8257 6.98476 14.3859 6.98476 13.6322 6.98476C13.3628 6.98476 13.1446 7.20318 13.1446 7.47243C13.1446 7.94557 13.1446 8.59256 13.1446 8.59256H17.0671ZM12.354 8.59256V7.47243C12.354 7.20318 12.1358 6.98496 11.8663 6.98476C11.1126 6.98476 9.67263 6.98476 8.91895 6.98476C8.64951 6.98496 8.43129 7.20318 8.43129 7.47243C8.43129 7.94557 8.43129 8.59256 8.43129 8.59256H12.354ZM14.7106 2.75915C14.7106 2.4899 14.4924 2.27169 14.223 2.27148H11.2756C11.0061 2.27169 10.7879 2.4899 10.7879 2.75915V5.70671C10.7879 5.97596 11.0061 6.19417 11.2756 6.19417H14.223C14.4924 6.19417 14.7106 5.97596 14.7106 5.70671V2.75915Z" fill="#ECAB4C"/>
</g>
</svg>
