<svg width="28" height="28" viewBox="0 0 28 28" fill="none" xmlns="http://www.w3.org/2000/svg">
<g id="Frame">
<circle id="Ellipse 13" cx="8.40156" cy="22.3996" r="2.8" fill="#A46C26"/>
<circle id="Ellipse 14" cx="19.6008" cy="22.3996" r="2.8" fill="#A46C26"/>
<path id="Vector 460" d="M23.8 6.29999H7L8.4 14.7H19.6L23.8 6.29999Z" fill="#A46C26"/>
<path id="Vector (Stroke)" fill-rule="evenodd" clip-rule="evenodd" d="M2.91797 3.50033C2.91797 3.17816 3.17914 2.91699 3.5013 2.91699H5.83464C6.1127 2.91699 6.35211 3.11326 6.40664 3.38592L6.77952 5.25033H24.5013C24.7035 5.25033 24.8912 5.35501 24.9975 5.52698C25.1038 5.69896 25.1135 5.91371 25.0231 6.09453L20.3564 15.4279C20.2576 15.6255 20.0556 15.7503 19.8346 15.7503H8.40959L5.90542 18.2545C5.53792 18.622 5.7982 19.2503 6.31788 19.2503H19.8346C21.4455 19.2503 22.7513 20.5561 22.7513 22.167C22.7513 23.7779 21.4455 25.0837 19.8346 25.0837C18.2238 25.0837 16.918 23.7779 16.918 22.167C16.918 21.5104 17.1349 20.9045 17.5011 20.417H10.5015C10.8677 20.9045 11.0846 21.5104 11.0846 22.167C11.0846 23.7779 9.77879 25.0837 8.16797 25.0837C6.55714 25.0837 5.2513 23.7779 5.2513 22.167C5.2513 21.4861 5.48462 20.8597 5.87566 20.3634C4.62177 20.0487 4.08798 18.4221 5.08044 17.4296L7.53474 14.9753L5.35642 4.08366H3.5013C3.17914 4.08366 2.91797 3.82249 2.91797 3.50033ZM8.64619 14.5837H19.4741L23.5574 6.41699H7.01285L8.64619 14.5837ZM8.16797 20.417C7.20146 20.417 6.41797 21.2005 6.41797 22.167C6.41797 23.1335 7.20146 23.917 8.16797 23.917C9.13447 23.917 9.91797 23.1335 9.91797 22.167C9.91797 21.2005 9.13447 20.417 8.16797 20.417ZM19.8346 20.417C18.8681 20.417 18.0846 21.2005 18.0846 22.167C18.0846 23.1335 18.8681 23.917 19.8346 23.917C20.8012 23.917 21.5846 23.1335 21.5846 22.167C21.5846 21.2005 20.8012 20.417 19.8346 20.417Z" fill="#A46C26"/>
</g>
</svg>
