<svg width="24" height="24" viewBox="0 0 24 24" fill="none" xmlns="http://www.w3.org/2000/svg">
<g id="noun-coupon-5804546">
<g id="Group">
<g id="Group_2">
<path id="Vector" fill-rule="evenodd" clip-rule="evenodd" d="M22.4102 6.6903V17.208C22.4102 17.806 22.1732 18.3792 21.7509 18.8014C21.3294 19.2243 20.7572 19.4617 20.1602 19.4617H11.1602C10.9614 19.4617 10.7702 19.3829 10.6299 19.2416L8.91016 17.519L7.19041 19.2416C7.05016 19.3829 6.85891 19.4617 6.66016 19.4617H3.66016C2.41741 19.4617 1.41016 18.4528 1.41016 17.208V6.6903C1.41016 5.44547 2.41741 4.43652 3.66016 4.43652H6.66016C6.85891 4.43652 7.05016 4.51541 7.19041 4.65664L8.91016 6.37928L10.6299 4.65664C10.7702 4.51541 10.9614 4.43652 11.1602 4.43652H20.1602C20.7572 4.43652 21.3294 4.67392 21.7509 5.09688C22.1732 5.51909 22.4102 6.0923 22.4102 6.6903ZM17.8547 8.5677L14.3799 14.5778C14.1722 14.9361 14.2952 15.3967 14.6529 15.604C15.0114 15.8121 15.4704 15.6897 15.6782 15.3306L19.1529 9.32047C19.3607 8.96212 19.2377 8.50159 18.8799 8.29424C18.5214 8.08614 18.0624 8.2086 17.8547 8.5677ZM14.9079 9.69535C14.4924 9.69535 14.1549 10.0334 14.1549 10.4489C14.1549 10.8651 14.4924 11.2031 14.9079 11.2031C15.3227 11.2031 15.6602 10.8651 15.6602 10.4489C15.6602 10.0334 15.3227 9.69535 14.9079 9.69535ZM18.6624 13.4569C18.2477 13.4569 17.9102 13.7942 17.9102 14.2104C17.9102 14.6266 18.2477 14.9639 18.6624 14.9639C19.0779 14.9639 19.4154 14.6266 19.4154 14.2104C19.4154 13.7942 19.0779 13.4569 18.6624 13.4569ZM9.66016 13.4516V10.4466C9.66016 10.0319 9.32416 9.69535 8.91016 9.69535C8.49616 9.69535 8.16016 10.0319 8.16016 10.4466V13.4516C8.16016 13.8663 8.49616 14.2029 8.91016 14.2029C9.32416 14.2029 9.66016 13.8663 9.66016 13.4516Z" fill="#ECAB4C"/>
</g>
</g>
</g>
</svg>
