<svg width="24" height="24" viewBox="0 0 24 24" fill="none" xmlns="http://www.w3.org/2000/svg">
<g id="noun-customer-5831043">
<g id="Group 39">
<path id="Vector" d="M9.03516 10.8913C5.31516 10.8913 2.28516 13.9116 2.28516 17.6198C2.28516 18.8011 2.59266 19.6758 3.21516 20.2888C4.32516 21.3878 6.14766 21.3729 8.24766 21.3579H9.03516H9.82266C10.0702 21.3579 10.3177 21.3579 10.5652 21.3579C12.3502 21.3579 13.8802 21.2533 14.8627 20.2814C15.4852 19.6608 15.7927 18.7861 15.7927 17.6124C15.7927 13.9042 12.7627 10.8838 9.04266 10.8838L9.03516 10.8913Z" fill="#ECAB4C"/>
<g id="Group">
<path id="Vector_2" d="M9.03516 10.1432C11.1062 10.1432 12.7852 8.46958 12.7852 6.40509C12.7852 4.34059 11.1062 2.66699 9.03516 2.66699C6.96409 2.66699 5.28516 4.34059 5.28516 6.40509C5.28516 8.46958 6.96409 10.1432 9.03516 10.1432Z" fill="#ECAB4C"/>
<path id="Vector_3" d="M16.5352 12.386C18.192 12.386 19.5352 11.0472 19.5352 9.39557C19.5352 7.74397 18.192 6.40509 16.5352 6.40509C14.8783 6.40509 13.5352 7.74397 13.5352 9.39557C13.5352 11.0472 14.8783 12.386 16.5352 12.386Z" fill="#ECAB4C"/>
</g>
<path id="Vector_4" d="M21.7866 18.3671C21.7866 19.3016 21.5391 20.0044 21.0366 20.4978C20.1441 21.38 18.7416 21.3726 17.1216 21.3576H15.9141C16.8216 20.453 17.2866 19.197 17.2866 17.6195C17.2866 16.042 16.8066 14.4571 15.9741 13.1712C16.1616 13.1413 16.3491 13.1338 16.5366 13.1338C19.4316 13.1338 21.7866 15.4813 21.7866 18.3671Z" fill="#ECAB4C"/>
</g>
</g>
</svg>
