<svg width="24" height="24" viewBox="0 0 24 24" fill="none" xmlns="http://www.w3.org/2000/svg">
<g id="Frame">
<path id="Vector" d="M2.39844 3.60039C2.39844 2.93765 2.9357 2.40039 3.59844 2.40039H6.18188C6.76849 2.40039 7.26912 2.82448 7.36556 3.40311L8.25273 8.72615C8.33934 9.2458 8.07691 9.76116 7.60572 9.99675L5.74795 10.9256C7.08751 14.2544 9.74445 16.9113 13.0732 18.2508L14.0021 16.3931C14.2376 15.9219 14.753 15.6594 15.2726 15.7461L20.5957 16.6332C21.1744 16.7297 21.5984 17.2304 21.5984 17.8169V20.4004C21.5984 21.0632 21.0612 21.6004 20.3984 21.6004H17.9984C9.3828 21.6004 2.39844 14.616 2.39844 6.00039V3.60039Z" fill="#ECAB4C"/>
</g>
</svg>
