<svg width="24" height="24" viewBox="0 0 24 24" fill="none" xmlns="http://www.w3.org/2000/svg">
<g id="Frame" clip-path="url(#clip0_129_611)">
<path id="Vector" fill-rule="evenodd" clip-rule="evenodd" d="M8.40416 0.133822C8.5836 0.229894 8.73362 0.37285 8.83822 0.547457C8.94283 0.722063 8.9981 0.921779 8.99816 1.12532V8.28032H10.0647C10.363 8.28032 10.6492 8.39885 10.8602 8.60983C11.0711 8.8208 11.1897 9.10695 11.1897 9.40532C11.1897 9.70369 11.0711 9.98984 10.8602 10.2008C10.6492 10.4118 10.363 10.5303 10.0647 10.5303H5.63666C5.33829 10.5303 5.05214 10.4118 4.84116 10.2008C4.63018 9.98984 4.51166 9.70369 4.51166 9.40532C4.51166 9.10695 4.63018 8.8208 4.84116 8.60983C5.05214 8.39885 5.33829 8.28032 5.63666 8.28032H6.74816V3.22532L6.24716 3.55982C5.99889 3.72142 5.69691 3.77857 5.40676 3.71888C5.11661 3.65919 4.86171 3.48747 4.69739 3.241C4.53307 2.99452 4.4726 2.69319 4.5291 2.4024C4.58559 2.11161 4.7545 1.85484 4.99916 1.68782L7.24916 0.187822C7.41863 0.074899 7.61557 0.0100945 7.81898 0.000320239C8.02239 -0.00945405 8.22464 0.0361685 8.40416 0.132322V0.133822ZM13.4982 7.12532C13.4982 6.82695 13.6167 6.5408 13.8277 6.32983C14.0386 6.11885 14.3248 6.00032 14.6232 6.00032H20.6232C20.8455 6.00052 21.0628 6.0666 21.2477 6.19023C21.4325 6.31386 21.5765 6.48949 21.6616 6.69494C21.7467 6.90038 21.7689 7.12643 21.7256 7.34453C21.6823 7.56262 21.5753 7.76299 21.4182 7.92032L18.5832 10.7583C19.0512 10.8723 19.4892 11.0283 19.8837 11.2368C20.9967 11.8233 21.7497 12.8313 21.7497 14.2443C21.7497 15.2238 21.4032 16.0563 20.8062 16.6848C20.2272 17.2968 19.4652 17.6643 18.6942 17.8503C17.1792 18.2148 15.3567 17.9448 14.0082 17.0598C13.7679 16.8924 13.6023 16.6379 13.5467 16.3504C13.4911 16.0628 13.5498 15.7649 13.7104 15.52C13.8709 15.2751 14.1207 15.1024 14.4065 15.0387C14.6924 14.975 14.9918 15.0253 15.2412 15.1788C16.0422 15.7038 17.2212 15.8898 18.1677 15.6618C18.6267 15.5523 18.9627 15.3603 19.1727 15.1383C19.3662 14.9343 19.4997 14.6583 19.4997 14.2443C19.4997 13.7823 19.3152 13.4808 18.8337 13.2273C18.2742 12.9318 17.3637 12.7503 16.1247 12.7503C15.9023 12.7501 15.685 12.684 15.5002 12.5604C15.3153 12.4368 15.1713 12.2612 15.0862 12.0557C15.0012 11.8503 14.9789 11.6242 15.0222 11.4061C15.0655 11.188 15.1725 10.9877 15.3297 10.8303L17.9097 8.25032H14.6232C14.3248 8.25032 14.0386 8.13179 13.8277 7.92082C13.6167 7.70984 13.4982 7.42369 13.4982 7.12532ZM8.11766 15.7698C7.59266 15.6948 6.96266 15.9393 6.64316 16.6278C6.58291 16.7649 6.49591 16.8885 6.38726 16.9915C6.27861 17.0945 6.1505 17.1748 6.01043 17.2276C5.87036 17.2805 5.72115 17.3048 5.57154 17.2993C5.42194 17.2937 5.27494 17.2584 5.13918 17.1953C5.00341 17.1322 4.88161 17.0426 4.78089 16.9319C4.68018 16.8211 4.60259 16.6914 4.55267 16.5502C4.50275 16.4091 4.4815 16.2594 4.49017 16.1099C4.49884 15.9605 4.53725 15.8142 4.60316 15.6798C5.36516 14.0388 6.98666 13.3323 8.44016 13.5423C9.94016 13.7598 11.2482 14.9598 11.2482 16.8753C11.2482 19.0248 9.61616 20.1633 8.56316 20.8968C8.10116 21.2208 7.70666 21.4923 7.40516 21.7563H10.4982C10.7965 21.7563 11.0827 21.8748 11.2937 22.0858C11.5046 22.2968 11.6232 22.583 11.6232 22.8813C11.6232 23.1797 11.5046 23.4658 11.2937 23.6768C11.0827 23.8878 10.7965 24.0063 10.4982 24.0063H5.62316C5.32479 24.0063 5.03864 23.8878 4.82766 23.6768C4.61668 23.4658 4.49816 23.1797 4.49816 22.8813C4.49816 21.8463 4.94816 21.0648 5.50316 20.4663C6.02516 19.9083 6.70316 19.4523 7.22816 19.0863C8.42816 18.2463 8.99816 17.7303 8.99816 16.8753C8.99816 16.1658 8.59766 15.8403 8.11766 15.7698Z" fill="#ECAB4C"/>
</g>
<defs>
<clipPath id="clip0_129_611">
<rect width="24" height="24" fill="white"/>
</clipPath>
</defs>
</svg>
