<svg width="24" height="24" viewBox="0 0 24 24" fill="none" xmlns="http://www.w3.org/2000/svg">
<g id="noun-fast-delivery-2373820">
<g id="Group 115">
<path id="Vector" d="M19.0378 7.47824C18.8727 7.2424 18.5897 7.1009 18.3067 7.1009H13.7078C13.5427 7.1009 13.4012 6.95939 13.4012 6.79431V5.80378C13.4012 5.28493 12.9767 4.86041 12.4578 4.86041H8.9202C8.7787 4.86041 8.68436 5.00192 8.75511 5.14342C9.13246 5.87453 9.29755 6.74714 9.17963 7.64333C8.94379 9.53006 7.4344 11.0394 5.54768 11.3224C4.43923 11.4875 3.37795 11.2045 2.5525 10.6149C2.411 10.5206 2.24591 10.6149 2.24591 10.78V16.8647C2.24591 17.3836 2.67042 17.8081 3.18927 17.8081H3.94396C4.06188 17.8081 4.15622 17.7137 4.1798 17.5958C4.29772 15.9449 5.6656 14.6478 7.34007 14.6478C9.01454 14.6478 10.3824 15.9449 10.5003 17.5958C10.5003 17.7137 10.5947 17.8081 10.7362 17.8081H13.0002C13.1182 17.8081 13.2125 17.7137 13.2361 17.5958C13.354 15.9449 14.7219 14.6478 16.3964 14.6478C18.0708 14.6478 19.4387 15.9449 19.5566 17.5958C19.5566 17.7137 19.6509 17.8081 19.7925 17.8081H21.3962C21.8914 17.8081 22.2924 17.4071 22.2924 16.9119V12.4781C22.2924 12.2894 22.2452 12.1243 22.1273 11.9592L19.0378 7.47824ZM20.099 12.6903C20.099 12.8554 19.9575 12.9733 19.816 12.9733H15.1936C15.0285 12.9733 14.9106 12.8554 14.9106 12.6903V9.08196C14.9106 8.91687 15.0285 8.79895 15.1936 8.79895H17.835C17.9293 8.79895 18.0236 8.84612 18.0708 8.91687L20.0519 11.6055C20.099 11.6526 20.099 11.7234 20.099 11.7705V12.6903Z" fill="#ECAB4C"/>
<path id="Vector_2" d="M7.33902 15.4258C6.01831 15.4258 4.95703 16.4871 4.95703 17.8078C4.95703 19.1285 6.01831 20.1898 7.33902 20.1898C8.65973 20.1898 9.72101 19.1285 9.72101 17.8078C9.72101 16.4871 8.63615 15.4258 7.33902 15.4258ZM7.33902 18.8455C6.773 18.8455 6.30132 18.3738 6.30132 17.8078C6.30132 17.2418 6.74942 16.7701 7.33902 16.7701C7.90504 16.7701 8.37672 17.2418 8.37672 17.8078C8.35314 18.3738 7.90504 18.8455 7.33902 18.8455Z" fill="#ECAB4C"/>
<path id="Vector_3" d="M16.3976 15.4258C15.0769 15.4258 14.0156 16.4871 14.0156 17.8078C14.0156 19.1285 15.0769 20.1898 16.3976 20.1898C17.7183 20.1898 18.7796 19.1285 18.7796 17.8078C18.7796 16.4871 17.7183 15.4258 16.3976 15.4258ZM16.3976 18.8455C15.8316 18.8455 15.3599 18.3738 15.3599 17.8078C15.3599 17.2418 15.808 16.7701 16.3976 16.7701C16.9636 16.7701 17.4353 17.2418 17.4353 17.8078C17.4353 18.3738 16.9636 18.8455 16.3976 18.8455Z" fill="#ECAB4C"/>
<path id="Vector_4" d="M1.63281 7.10089C1.63281 7.80841 1.86865 8.46877 2.246 9.0112C2.8356 9.86023 3.82613 10.4027 4.95817 10.4027C6.77414 10.4027 8.28352 8.91686 8.28352 7.07731C8.28352 6.22828 7.95334 5.45001 7.43449 4.8604C6.82131 4.17647 5.9487 3.75195 4.98175 3.75195C3.11861 3.77554 1.63281 5.26133 1.63281 7.10089ZM4.62799 5.37925C4.62799 5.21417 4.76949 5.04908 4.95817 5.04908C5.14684 5.04908 5.28834 5.19058 5.28834 5.37925V6.67638C5.28834 6.72355 5.31193 6.74713 5.3591 6.74713H6.04303C6.23171 6.74713 6.37321 6.88863 6.37321 7.07731C6.37321 7.26598 6.23171 7.40748 6.04303 7.40748H4.72233C4.67516 7.40748 4.65157 7.3839 4.65157 7.33673V5.37925H4.62799Z" fill="#ECAB4C"/>
</g>
</g>
</svg>
