<svg width="24" height="24" viewBox="0 0 24 24" fill="none" xmlns="http://www.w3.org/2000/svg">
<g id="Frame">
<path id="Vector" fill-rule="evenodd" clip-rule="evenodd" d="M6.00156 10.8004V8.40039C6.00156 5.08669 8.68786 2.40039 12.0016 2.40039C15.3152 2.40039 18.0016 5.08669 18.0016 8.40039V10.8004C19.3271 10.8004 20.4016 11.8749 20.4016 13.2004V19.2004C20.4016 20.5259 19.3271 21.6004 18.0016 21.6004H6.00156C4.67608 21.6004 3.60156 20.5259 3.60156 19.2004V13.2004C3.60156 11.8749 4.67608 10.8004 6.00156 10.8004ZM15.6016 8.40039V10.8004H8.40156V8.40039C8.40156 6.41217 10.0133 4.80039 12.0016 4.80039C13.9898 4.80039 15.6016 6.41217 15.6016 8.40039Z" fill="#ECAB4C"/>
</g>
</svg>
