<svg width="24" height="24" viewBox="0 0 24 24" fill="none" xmlns="http://www.w3.org/2000/svg">
<g id="noun-love-5823462 1">
<path id="Vector" d="M11.7421 21.1909C11.8107 21.2597 11.9036 21.2989 12.0008 21.3C12.049 21.2998 12.0967 21.2901 12.1411 21.2713C12.1855 21.2526 12.2257 21.2253 12.2594 21.1909L20.4857 12.9788C21.5839 11.8825 22.2008 10.3957 22.2008 8.84543C22.2008 7.29512 21.5839 5.80832 20.4857 4.71209C19.3876 3.61586 17.8982 3 16.3453 3C14.7923 3 13.3029 3.61586 12.2048 4.71209L12.0008 4.91575L11.7968 4.71209C10.6986 3.61586 9.20927 3 7.65629 3C6.10331 3 4.61394 3.61586 3.51582 4.71209C2.4177 5.80832 1.80078 7.29512 1.80078 8.84543C1.80078 10.3957 2.4177 11.8825 3.51582 12.9788L11.7421 21.1909Z" fill="#ECAB4C"/>
</g>
</svg>
