<svg width="24" height="24" viewBox="0 0 24 24" fill="none" xmlns="http://www.w3.org/2000/svg">
<g id="noun-refund-3235183 1">
<circle id="Ellipse 15" cx="12" cy="12" r="6" fill="#ECAB4C"/>
<g id="Group 42">
<g id="Group">
<g id="Group_2">
<g id="Group_3">
<path id="Vector" d="M5.26013 6.90507C5.74038 6.28787 6.29822 5.73134 6.91687 5.25223C6.86025 5.29616 6.80363 5.3401 6.747 5.38403C7.38034 4.89655 8.0724 4.49276 8.80849 4.18102C8.74138 4.20822 8.67428 4.23751 8.60717 4.2647C9.36214 3.94878 10.1549 3.73328 10.9664 3.62449C10.8931 3.63495 10.8176 3.64541 10.7442 3.65378C11.5683 3.54499 12.403 3.54708 13.2251 3.65797C13.1517 3.6475 13.0762 3.63704 13.0028 3.62867C13.8081 3.73956 14.5945 3.95297 15.3453 4.26889C15.2782 4.24169 15.2111 4.2124 15.144 4.1852C15.8759 4.49485 16.5637 4.89655 17.1929 5.37985C17.1362 5.33591 17.0796 5.29198 17.023 5.24804C17.6458 5.73134 18.2079 6.28996 18.6902 6.91135C18.6462 6.85486 18.6021 6.79837 18.5581 6.74188C19.0425 7.36954 19.4452 8.05578 19.7556 8.78596C19.7283 8.71901 19.6989 8.65206 19.6717 8.58511C19.9862 9.33203 20.2023 10.1187 20.3134 10.9221C20.3029 10.8489 20.2924 10.7736 20.284 10.7003C20.3952 11.5288 20.3952 12.372 20.284 13.2005C20.2945 13.1273 20.305 13.052 20.3134 12.9787C20.2023 13.7821 19.9883 14.5667 19.6717 15.3157C19.6989 15.2488 19.7283 15.1818 19.7556 15.1149C19.4452 15.8451 19.0425 16.5313 18.5581 17.159C18.6021 17.1025 18.6462 17.046 18.6902 16.9895C18.2058 17.6109 17.6458 18.1716 17.023 18.6528C17.0796 18.6089 17.1362 18.5649 17.1929 18.521C16.5637 19.0043 15.8759 19.406 15.144 19.7156C15.2111 19.6884 15.2782 19.6592 15.3453 19.632C14.5966 19.9458 13.8081 20.1613 13.0028 20.2722C13.0762 20.2617 13.1517 20.2512 13.2251 20.2429C12.3946 20.3538 11.5495 20.3538 10.719 20.2429C10.7924 20.2533 10.8679 20.2638 10.9413 20.2722C10.136 20.1613 9.34956 19.9479 8.59878 19.632C8.66589 19.6592 8.733 19.6884 8.80011 19.7156C8.0682 19.406 7.38034 19.0043 6.7512 18.521C6.80782 18.5649 6.86444 18.6089 6.92107 18.6528C6.29822 18.1695 5.73618 17.6109 5.25384 16.9895C5.29788 17.046 5.34192 17.1025 5.38596 17.159C4.90152 16.5313 4.49887 15.8451 4.18849 15.1149C4.21576 15.1818 4.24512 15.2488 4.27238 15.3157C3.95781 14.5688 3.7418 13.7821 3.63065 12.9787C3.64114 13.052 3.65163 13.1273 3.66001 13.2005C3.60339 12.7863 3.57613 12.3678 3.57613 11.9494C3.57613 11.5121 3.19026 11.0916 2.73727 11.1125C2.28429 11.1334 1.89842 11.4807 1.89842 11.9494C1.90051 13.7675 2.39963 15.5835 3.34544 17.1401C4.2598 18.6465 5.5789 19.9186 7.12868 20.7638C8.73509 21.6405 10.5848 22.0757 12.4156 21.9899C14.2254 21.9041 16.0164 21.3434 17.5263 20.3349C18.9943 19.3537 20.2211 18 20.9992 16.4121C21.8066 14.7634 22.1799 12.9034 22.0058 11.0706C21.8359 9.27554 21.2152 7.52855 20.1414 6.07028C19.0908 4.64967 17.7004 3.47594 16.0688 2.77087C15.2362 2.41101 14.3785 2.14321 13.4788 2.01768C12.9797 1.94863 12.4785 1.90051 11.9731 1.90051C11.4089 1.90051 10.849 1.957 10.2933 2.04487C8.30099 2.35871 6.41985 3.33158 4.97073 4.72499C4.64777 5.03673 4.34788 5.36939 4.07105 5.72506C3.92845 5.90918 3.82569 6.07446 3.82569 6.31716C3.82569 6.52219 3.91796 6.76698 4.07105 6.90925C4.23044 7.05571 4.44015 7.1645 4.66454 7.15404C4.87216 7.14149 5.12592 7.07663 5.26013 6.90507Z" fill="#ECAB4C"/>
</g>
</g>
<g id="Group_4">
<g id="Group_5">
<path id="Vector_2" d="M7.31727 5.78179C6.43647 5.78179 5.55567 5.78179 4.67697 5.78179C4.55324 5.78179 4.42741 5.78179 4.30368 5.78179C4.5826 6.06005 4.86362 6.3404 5.14254 6.61867C5.14254 5.73994 5.14254 4.86121 5.14254 3.98458C5.14254 3.86114 5.14254 3.73561 5.14254 3.61217C5.14254 3.1749 4.75666 2.75436 4.30368 2.77529C3.8486 2.79621 3.46482 3.14351 3.46482 3.61217C3.46482 4.49089 3.46482 5.36962 3.46482 6.24625C3.46482 6.36969 3.46482 6.49523 3.46482 6.61867C3.46482 7.07058 3.8486 7.45555 4.30368 7.45555C5.18448 7.45555 6.06528 7.45555 6.94398 7.45555C7.06771 7.45555 7.19354 7.45555 7.31727 7.45555C7.75557 7.45555 8.1771 7.07058 8.15613 6.61867C8.13515 6.16466 7.78703 5.78179 7.31727 5.78179Z" fill="#ECAB4C"/>
</g>
</g>
</g>
<path id="&#226;&#130;&#185;" d="M14.1599 10.4015L13.93 11.277H9.70703L9.93377 10.4015H14.1599ZM11.965 15.2512L9.81095 12.6878L9.8141 11.9005H10.8785C11.1157 11.9005 11.3141 11.8564 11.4737 11.7682C11.6332 11.6801 11.7529 11.5604 11.8327 11.4092C11.9125 11.2581 11.9534 11.0859 11.9555 10.8928C11.9534 10.6031 11.8684 10.3669 11.7004 10.1842C11.5346 9.99947 11.2606 9.9071 10.8785 9.9071H9.70703L9.96526 8.80176H10.8785C11.4139 8.80176 11.86 8.88259 12.2169 9.04424C12.5759 9.2038 12.8446 9.43158 13.0231 9.7276C13.2036 10.0236 13.2949 10.3763 13.297 10.7857C13.2949 11.1489 13.234 11.4659 13.1144 11.7367C12.9968 12.0076 12.811 12.2333 12.557 12.4138C12.3051 12.5943 11.9765 12.7287 11.5713 12.8169L11.5209 12.8358L13.4482 15.1945V15.2512H11.965ZM14.1662 8.80176L13.93 9.68981H10.4534L10.6896 8.80176H14.1662Z" fill="#F4F4F4"/>
</g>
</g>
</svg>
