<svg width="24" height="24" viewBox="0 0 24 24" fill="none" xmlns="http://www.w3.org/2000/svg">
<g id="noun-return-5729785 1">
<g id="Group">
<path id="Vector" fill-rule="evenodd" clip-rule="evenodd" d="M5.35988 3.26494C5.28938 3.19444 5.25 3.09956 5.25 2.99981C5.25 2.90006 5.28938 2.80519 5.35988 2.73469L6.48487 1.60969C6.63112 1.46344 6.86888 1.46344 7.01513 1.60969C7.16138 1.75594 7.16138 1.99369 7.01513 2.13994L6.53025 2.62481H16.875C17.3722 2.62481 17.8492 2.82244 18.2006 3.17381C18.5524 3.52556 18.75 4.00256 18.75 4.49981V6.37481C18.75 6.58181 18.582 6.74981 18.375 6.74981C18.168 6.74981 18 6.58181 18 6.37481V4.49981C18 4.20131 17.8815 3.91519 17.6704 3.70444C17.4596 3.49331 17.1735 3.37481 16.875 3.37481H6.53025L7.01513 3.85969C7.16138 4.00594 7.16138 4.24369 7.01513 4.38994C6.86888 4.53619 6.63112 4.53619 6.48487 4.38994L5.35988 3.26494Z" fill="#ECAB4C"/>
<path id="Vector_2" fill-rule="evenodd" clip-rule="evenodd" d="M20.1109 9.45741L17.541 10.744L14.94 9.48741C14.7435 9.39253 14.5121 9.39253 14.3156 9.48741C14.0535 9.61378 13.62 9.88303 13.1854 10.093C12.9409 10.2112 12.7894 10.4545 12.7894 10.7185C12.7894 10.9829 12.9409 11.2263 13.1854 11.3444C13.1895 11.3463 13.194 11.3482 13.1981 11.35L14.8684 12.0824L12.1204 13.4583C12.045 13.4962 11.9565 13.4962 11.8811 13.4583L3.89062 9.45741L11.8954 6.02166C11.9625 5.99278 12.0386 5.99278 12.1057 6.02166L20.1109 9.45741Z" fill="#ECAB4C"/>
<path id="Vector_3" fill-rule="evenodd" clip-rule="evenodd" d="M3.375 10.0382L11.5444 14.1291C11.571 14.1422 11.5976 14.1542 11.625 14.1651V22.3438L3.52313 18.2867C3.43238 18.2413 3.375 18.148 3.375 18.0463V10.0382Z" fill="#ECAB4C"/>
<path id="Vector_4" fill-rule="evenodd" clip-rule="evenodd" d="M12.375 22.3438V14.1651C12.402 14.1542 12.429 14.1422 12.4553 14.1291L15.375 12.667V15.0261C15.375 15.2683 15.5025 15.4948 15.7159 15.622C15.9218 15.745 16.1786 15.7566 16.3954 15.652C16.824 15.4446 17.304 15.1528 17.604 15.0081C17.8485 14.89 18 14.6466 18 14.3826V11.3526L20.625 10.0382V18.0463C20.625 18.1483 20.5676 18.2413 20.4765 18.2867L12.375 22.3438Z" fill="#ECAB4C"/>
<path id="Vector_5" fill-rule="evenodd" clip-rule="evenodd" d="M16.125 12.2912L17.25 11.7275V14.3465C16.962 14.4883 16.5259 14.7504 16.125 14.9488V12.2912Z" fill="#ECAB4C"/>
<path id="Vector_6" fill-rule="evenodd" clip-rule="evenodd" d="M16.6929 11.1676L15.7389 11.6453L13.6172 10.7149C14.0076 10.5184 14.3852 10.2874 14.6267 10.1689L16.6929 11.1676Z" fill="#ECAB4C"/>
</g>
</g>
</svg>
