<svg width="24" height="24" viewBox="0 0 24 24" fill="none" xmlns="http://www.w3.org/2000/svg">
<g id="Frame" clip-path="url(#clip0_129_607)">
<path id="Vector" d="M5.60078 9.59961C5.15896 9.59961 4.80078 9.95779 4.80078 10.3996V13.5996C4.80078 14.0414 5.15896 14.3996 5.60078 14.3996C6.04261 14.3996 6.40078 14.0414 6.40078 13.5996V10.3996C6.40078 9.95779 6.04261 9.59961 5.60078 9.59961Z" fill="#ECAB4C"/>
<path id="Vector_2" d="M17.6016 11.1996H18.4016C18.8433 11.1996 19.2016 10.8414 19.2016 10.3996C19.2016 9.95779 18.8433 9.59961 18.4016 9.59961H17.6016V11.1996Z" fill="#ECAB4C"/>
<path id="Vector_3" fill-rule="evenodd" clip-rule="evenodd" d="M0 2.4C0 1.07452 1.07452 0 2.4 0H21.6C22.9254 0 24 1.07452 24 2.4V21.6C24 22.9254 22.9254 24 21.6 24H2.4C1.07452 24 0 22.9254 0 21.6V2.4ZM3.2 10.4C3.2 9.07451 4.27451 8 5.6 8C6.92549 8 8 9.07451 8 10.4V13.6C8 14.9255 6.92549 16 5.6 16C4.27451 16 3.2 14.9255 3.2 13.6V10.4ZM11.2 9.6H9.6V8H14.4V9.6H12.8V16H11.2V9.6ZM16 8H18.4C19.7254 8 20.8 9.07451 20.8 10.4C20.8 11.7255 19.7254 12.8 18.4 12.8H17.6V16H16V8Z" fill="#ECAB4C"/>
</g>
<defs>
<clipPath id="clip0_129_607">
<rect width="24" height="24" fill="white"/>
</clipPath>
</defs>
</svg>
