<svg width="24" height="24" viewBox="0 0 24 24" fill="none" xmlns="http://www.w3.org/2000/svg">
<g id="noun-package-1412147 1">
<g id="01 Share">
<path id="Vector" d="M22.8056 8.21944L19.3147 4.07399C19.2729 4.027 19.2214 3.98961 19.1638 3.96438C19.1062 3.93915 19.0438 3.92667 18.9809 3.92781H5.01728C4.95372 3.92775 4.89091 3.94159 4.83325 3.96835C4.77559 3.99511 4.72447 4.03414 4.68347 4.08271L1.19256 8.22817C1.14123 8.28906 1.10755 8.36283 1.09516 8.44149C1.08277 8.52016 1.09214 8.60071 1.12225 8.67443C1.15237 8.74815 1.20209 8.81222 1.26601 8.8597C1.32994 8.90719 1.40564 8.93627 1.48492 8.94381L10.2122 9.76417H10.2536C10.3442 9.76426 10.4326 9.73617 10.5065 9.68378C10.5804 9.63139 10.6361 9.55731 10.666 9.47181L11.9991 5.67762L13.3322 9.46526C13.3621 9.55076 13.4178 9.62484 13.4917 9.67723C13.5656 9.72962 13.654 9.75772 13.7446 9.75762H13.786L22.5133 8.93726C22.593 8.93 22.6691 8.90098 22.7334 8.85337C22.7977 8.80576 22.8477 8.74139 22.8778 8.66729C22.908 8.5932 22.9172 8.51223 22.9045 8.43325C22.8918 8.35426 22.8576 8.2803 22.8056 8.21944Z" fill="#ECAB4C"/>
<path id="Vector_2" d="M12.5109 9.75755L12.0004 8.30664L11.4898 9.75755C11.3936 10.0337 11.2077 10.2697 10.9617 10.4278C10.7158 10.586 10.4239 10.6573 10.1327 10.6303L4.58219 10.1023V18.2186C4.57951 18.3189 4.61145 18.417 4.67265 18.4965C4.73385 18.576 4.82056 18.632 4.91819 18.655L11.564 20.2019V11.7823C11.564 11.6665 11.61 11.5556 11.6918 11.4737C11.7736 11.3919 11.8846 11.3459 12.0004 11.3459C12.1161 11.3459 12.2271 11.3919 12.3089 11.4737C12.3908 11.5556 12.4367 11.6665 12.4367 11.7823V20.2063L19.076 18.7532C19.1748 18.7315 19.2631 18.676 19.3255 18.5964C19.388 18.5168 19.4209 18.418 19.4186 18.3168V10.1023L13.868 10.6237C13.5776 10.6512 13.2864 10.5808 13.0406 10.4239C12.7947 10.267 12.6083 10.0325 12.5109 9.75755Z" fill="#ECAB4C"/>
</g>
</g>
</svg>
