<svg width="20" height="20" viewBox="0 0 20 20" fill="none" xmlns="http://www.w3.org/2000/svg">
<g id="Frame">
<path id="Vector" d="M9.99999 12C11.1046 12 12 11.1046 12 10C12 8.89543 11.1046 8 9.99999 8C8.89543 8 8 8.89543 8 10C8 11.1046 8.89543 12 9.99999 12Z" fill="#333333"/>
<path id="Vector_2" fill-rule="evenodd" clip-rule="evenodd" d="M0.457031 10C1.73129 5.94291 5.52159 3 9.99924 3C14.4769 3 18.2672 5.94288 19.5415 9.99996C18.2672 14.0571 14.4769 17 9.99922 17C5.52159 17 1.73131 14.0571 0.457031 10ZM13.9993 10C13.9993 12.2091 12.2084 14 9.99927 14C7.79014 14 5.99928 12.2091 5.99928 10C5.99928 7.79086 7.79014 6 9.99927 6C12.2084 6 13.9993 7.79086 13.9993 10Z" fill="#333333"/>
</g>
</svg>
