<svg width="24" height="24" viewBox="0 0 24 24" fill="none" xmlns="http://www.w3.org/2000/svg">
<g id="noun-terms-and-conditions-4820927 1">
<g id="Group">
<path id="Vector" d="M12.9044 17.7784C12.9044 16.4771 13.4111 15.2535 14.3313 14.3333C15.2516 13.413 16.4748 12.9064 17.7764 12.9064C18.8448 12.9064 19.8607 13.2484 20.6996 13.8799C20.7461 13.2004 20.7749 12.4403 20.7761 11.5894C20.7738 9.44927 20.5942 7.88214 20.4026 6.73052C20.0673 4.83302 18.3438 3.10952 16.4463 2.77427C15.2947 2.58227 13.7276 2.40264 11.5871 2.40039C9.44694 2.40264 7.87944 2.58227 6.72781 2.77389C4.83069 3.10914 3.10719 4.83264 2.77194 6.73014C2.58031 7.88177 2.40106 9.44889 2.39844 11.589C2.40106 13.7291 2.58031 15.2966 2.77194 16.4483C3.10719 18.3458 4.83069 20.0693 6.72819 20.4045C7.87981 20.5961 9.44694 20.7754 11.5874 20.778C12.4383 20.7769 13.1984 20.748 13.8779 20.7015C13.2464 19.8626 12.9044 18.8471 12.9044 17.7784ZM7.04694 6.84114H16.1276C16.7148 6.84114 17.1911 7.31739 17.1911 7.90464C17.1911 8.49189 16.7148 8.96814 16.1276 8.96814H7.04694C6.45969 8.96814 5.98344 8.49189 5.98344 7.90464C5.98344 7.31739 6.45969 6.84114 7.04694 6.84114ZM7.04694 13.4093C6.45969 13.4093 5.98344 12.933 5.98344 12.3458C5.98344 11.7585 6.45969 11.2823 7.04694 11.2823H12.3776C12.9648 11.2823 13.4411 11.7585 13.4411 12.3458C13.4411 12.933 12.9648 13.4093 12.3776 13.4093H7.04694Z" fill="#ECAB4C"/>
<path id="Vector_2" d="M17.7751 13.9561C15.6642 13.9561 13.9531 15.6672 13.9531 17.7781C13.9531 19.8889 15.6642 21.6001 17.7751 21.6001C19.886 21.6001 21.5971 19.8889 21.5971 17.7781C21.5971 15.6672 19.886 13.9561 17.7751 13.9561ZM18.4876 19.6744C18.4876 20.0678 18.1685 20.3869 17.7751 20.3869C17.3817 20.3869 17.0626 20.0678 17.0626 19.6744V17.7946C17.0626 17.4012 17.3817 17.0821 17.7751 17.0821C18.1685 17.0821 18.4876 17.4012 18.4876 17.7946V19.6744ZM18.4584 16.2694C18.4321 16.4179 18.2971 16.5529 18.1486 16.5792C18.0586 16.5942 17.9356 16.6081 17.768 16.6084C17.6004 16.6084 17.4777 16.5942 17.3874 16.5792C17.2389 16.5529 17.1039 16.4179 17.0776 16.2694C17.0626 16.1794 17.0488 16.0564 17.0484 15.8888C17.0484 15.7212 17.0626 15.5986 17.0776 15.5082C17.1039 15.3597 17.2389 15.2247 17.3874 15.1984C17.4774 15.1834 17.6004 15.1696 17.768 15.1692C17.9356 15.1692 18.0582 15.1834 18.1486 15.1984C18.2971 15.2247 18.4321 15.3597 18.4584 15.5082C18.4734 15.5982 18.4872 15.7212 18.4876 15.8888C18.4876 16.0564 18.4734 16.1791 18.4584 16.2694Z" fill="#ECAB4C"/>
</g>
</g>
</svg>
