<svg width="24" height="24" viewBox="0 0 24 24" fill="none" xmlns="http://www.w3.org/2000/svg">
<g id="noun-wallet-5831027">
<g id="Group 40">
<path id="Vector" d="M11.1328 14.5002V12.9935C11.1328 10.9143 12.8128 9.22686 14.8828 9.22686H19.3828C19.3828 8.11946 18.7753 7.1552 17.8828 6.6354V6.21353C17.8828 4.54866 16.5403 3.2002 14.8828 3.2002H5.13281C3.47531 3.2002 2.13281 4.54866 2.13281 6.21353V18.2669C2.13281 19.9317 3.47531 21.2802 5.13281 21.2802H16.3828C18.0403 21.2802 19.3828 19.9317 19.3828 18.2669H14.8828C12.8128 18.2669 11.1328 16.5794 11.1328 14.5002ZM3.63281 6.21353C3.63281 5.38486 4.30781 4.70686 5.13281 4.70686H14.8828C15.7078 4.70686 16.3828 5.38486 16.3828 6.21353H3.63281Z" fill="#ECAB4C"/>
<path id="Vector_2" d="M19.3828 10.7335H14.8828C13.6453 10.7335 12.6328 11.7505 12.6328 12.9935V14.5002C12.6328 15.7432 13.6453 16.7602 14.8828 16.7602H19.3828C20.6203 16.7602 21.6328 15.7432 21.6328 14.5002V12.9935C21.6328 11.7505 20.6203 10.7335 19.3828 10.7335ZM16.3828 14.5002H15.6328C15.2203 14.5002 14.8828 14.1612 14.8828 13.7469C14.8828 13.3325 15.2203 12.9935 15.6328 12.9935H16.3828C16.7953 12.9935 17.1328 13.3325 17.1328 13.7469C17.1328 14.1612 16.7953 14.5002 16.3828 14.5002Z" fill="#ECAB4C"/>
</g>
</g>
</svg>
